<?xml version="1.0" encoding="UTF-8"?>
<svg version="1.1" xmlns="http://www.w3.org/2000/svg" width="551" height="581" viewBox="0 0 551 581">
<path d="M0 0 C1.55748765 1.18787111 3.10013696 2.39552928 4.625 3.625 C5.68654297 4.42550781 5.68654297 4.42550781 6.76953125 5.2421875 C12.48037345 9.8064935 16.16664699 15.22485811 19.625 21.625 C20.06199219 22.43324219 20.49898438 23.24148437 20.94921875 24.07421875 C25.49745073 34.2399162 25.75049507 49.81991533 21.78515625 60.27734375 C13.79894461 76.43799425 4.21684521 86.13574498 -12.375 92.625 C-13.36443604 92.85735352 -14.35387207 93.08970703 -15.37329102 93.32910156 C-19.36399045 95.05196717 -20.0660278 96.84955793 -21.91796875 100.734375 C-22.21310867 101.33880432 -22.5082486 101.94323364 -22.81233215 102.565979 C-23.74833565 104.49371251 -24.65561227 106.43342594 -25.5625 108.375 C-26.18237527 109.66496254 -26.80410315 110.95403657 -27.42773438 112.2421875 C-28.57835648 114.62479715 -29.71541382 117.01221502 -30.84448242 119.40527344 C-32.31457632 122.49788763 -33.84363208 125.56226415 -35.375 128.625 C2.245 128.625 39.865 128.625 78.625 128.625 C78.955 126.315 79.285 124.005 79.625 121.625 C80.34809988 119.39327448 81.14042584 117.1827974 82 115 C82.63035156 113.37191406 82.63035156 113.37191406 83.2734375 111.7109375 C84.53734388 108.82513969 85.82656247 106.2120572 87.625 103.625 C88.285 103.625 88.945 103.625 89.625 103.625 C90.03105469 102.73748047 90.03105469 102.73748047 90.4453125 101.83203125 C95.27080765 92.80420092 105.87234563 87.17566882 115.125 83.6875 C120.26078517 82.34082017 125.47033099 82.31479594 130.75 82.25 C131.59755859 82.23590088 132.44511719 82.22180176 133.31835938 82.20727539 C139.09612209 82.25181513 143.32914056 83.31055551 148.625 85.625 C149.35589844 85.92921875 150.08679688 86.2334375 150.83984375 86.546875 C165.09078537 93.3976678 174.95174196 105.03662219 180.625 119.625 C184.58196522 134.78407803 181.6024873 149.19286146 173.984375 162.48828125 C166.16115233 174.53385074 154.96010208 181.99838006 141.2734375 185.890625 C125.53767183 189.05799539 113.01398121 184.86754783 98.625 178.625 C98.2846875 179.800625 98.2846875 179.800625 97.9375 181 C93.28294188 193.85544623 85.72433854 206.00763536 79.2578125 218.03515625 C75.49642658 225.04790966 71.89137739 232.08307863 68.5625 239.3125 C65.57017216 245.80917622 62.23257469 251.9414872 58.6171875 258.1171875 C56.13408638 262.41719188 53.95725878 266.85935735 51.765625 271.31274414 C49.14117214 276.63222018 46.40343279 281.88447756 43.625 287.125 C37.55487949 298.60281564 31.75748752 310.17940369 26.25 321.9375 C15.61185892 344.61947834 15.61185892 344.61947834 9.7734375 353.4140625 C8.4427822 355.51927531 8.4427822 355.51927531 8.734375 357.7109375 C9.80227032 360.0059757 11.10491978 361.44143977 12.875 363.25 C22.17426315 373.50401296 24.31004805 385.35875476 24 398.75 C23.26699568 412.17445048 16.1940343 423.93132872 6.5546875 433.03515625 C-5.54784258 443.00626909 -18.82438861 445.8459949 -34.13623047 444.84814453 C-46.142631 443.65143242 -57.45741932 437.55072467 -65.68359375 428.76953125 C-76.38110305 415.20617651 -80.57007255 401.88526214 -79.375 384.625 C-76.81028247 370.85895591 -69.30848343 359.49563065 -58.27734375 351.01171875 C-54.32917926 348.39089601 -50.61226894 346.61289237 -46.015625 345.484375 C-36.540603 343.37632271 -36.540603 343.37632271 -29.6484375 337.07421875 C-27.85250578 333.69205747 -26.45789033 330.17494086 -25.13671875 326.58447266 C-24.04857128 323.78528304 -22.6115565 321.23011739 -21.125 318.625 C-18.72920571 314.3407561 -16.58050448 310.03600896 -14.375 305.625 C-53.645 305.625 -92.915 305.625 -133.375 305.625 C-133.375 307.935 -133.375 310.245 -133.375 312.625 C-135.13312042 324.84812292 -141.03093569 337.3716825 -150.375 345.625 C-165.10390199 356.50379387 -178.63412162 359.26465062 -196.5625 357.0625 C-210.31209089 354.43638441 -220.347733 345.64567968 -228.32421875 334.6796875 C-236.35557674 322.71678855 -238.43158523 308.20005471 -235.6875 294.08984375 C-233.71287693 287.05524905 -230.93784552 281.3158541 -226.375 275.625 C-225.70339844 274.779375 -225.03179687 273.93375 -224.33984375 273.0625 C-219.33374519 267.12934616 -214.25175018 263.17543191 -207.375 259.625 C-205.828125 258.75875 -205.828125 258.75875 -204.25 257.875 C-192.40560502 252.72526305 -179.2618156 253.28058218 -167.22265625 257.47265625 C-163.47622456 258.988702 -159.94945661 260.74028652 -156.375 262.625 C-155.05047053 262.99175684 -153.71821232 263.33401965 -152.375 263.625 C-152.260354 263.06522461 -152.14570801 262.50544922 -152.02758789 261.92871094 C-151.28733413 259.31552931 -150.20776601 257.16455368 -148.93359375 254.765625 C-148.18770996 253.35132202 -148.18770996 253.35132202 -147.42675781 251.90844727 C-146.89405273 250.90740967 -146.36134766 249.90637207 -145.8125 248.875 C-144.71120474 246.7857014 -143.61094722 244.69585547 -142.51171875 242.60546875 C-141.97337402 241.58243652 -141.4350293 240.5594043 -140.88037109 239.50537109 C-138.9194908 235.75343051 -137.00894099 231.97854519 -135.125 228.1875 C-134.81175781 227.5584375 -134.49851562 226.929375 -134.17578125 226.28125 C-132.5598584 223.02920526 -130.9558579 219.77143056 -129.35546875 216.51171875 C-126.38856692 210.49288327 -123.4080607 204.56211553 -119.9375 198.8125 C-116.41198832 192.92320131 -113.52056233 186.79186887 -110.65844727 180.5612793 C-108.47844996 175.83952324 -106.12123011 171.28504446 -103.5625 166.75756836 C-101.82721757 163.64126654 -100.25668316 160.4522089 -98.6875 157.25 C-95.6739383 151.15875827 -92.55697839 145.12986775 -89.375 139.125 C-85.32451557 131.47017368 -81.39952146 123.76344383 -77.55419922 116.00390625 C-75.06323017 110.97864696 -72.56375077 105.95764771 -70.0625 100.9375 C-69.5463916 99.89698486 -69.0302832 98.85646973 -68.49853516 97.78442383 C-68.00788574 96.79982178 -67.51723633 95.81521973 -67.01171875 94.80078125 C-66.57561279 93.92333252 -66.13950684 93.04588379 -65.69018555 92.1418457 C-64.375 89.625 -64.375 89.625 -62.70532227 86.9296875 C-61.18712203 84.7719561 -61.18712203 84.7719561 -61.453125 82.57421875 C-62.63979143 80.0651232 -64.19412626 78.43007459 -66.125 76.4375 C-75.67111409 65.95382114 -80.19172059 53.25178049 -79.6875 39.0390625 C-78.73680138 28.65268004 -75.62906691 20.95967625 -69.375 12.625 C-68.72660156 11.75746094 -68.07820312 10.88992187 -67.41015625 9.99609375 C-50.76058635 -10.31204085 -21.75479794 -14.69112117 0 0 Z " fill="#52CE74" transform="translate(304.375,82.375)"/>
<path d="M0 0 C37.29 0 74.58 0 113 0 C110.36 5.28 107.72 10.56 105 16 C103.7625 18.495625 102.525 20.99125 101.25 23.5625 C95.98919913 34.12167888 90.47551645 44.55118436 85 55 C82.89415481 59.01995745 80.79033959 63.04096967 78.6875 67.0625 C78.22053711 67.95267822 77.75357422 68.84285645 77.27246094 69.76000977 C73.41872385 77.13004432 69.72148685 84.5570263 66 92 C29.04 92 -7.92 92 -46 92 C-44.41545345 87.24636034 -42.63301468 82.99134733 -40.375 78.5625 C-40.02308594 77.86511719 -39.67117187 77.16773438 -39.30859375 76.44921875 C-36.61358472 71.13592693 -33.81952768 65.87874402 -30.99487305 60.63354492 C-28.64397248 56.25276175 -26.39296648 51.83057804 -24.1875 47.375 C-21.04868836 41.03460049 -17.79677839 34.75964144 -14.5 28.5 C-9.87928643 19.72472202 -5.39278616 10.89128108 -1 2 C-0.67 1.34 -0.34 0.68 0 0 Z " fill="none" transform="translate(246,254)"/>
<path d="M0 0 C9.18967334 7.68474426 15.82968732 18.13811863 18 30 C18.44110971 36.9930416 18.25567276 44.00243317 18 51 C17.34 51 16.68 51 16 51 C15.90203125 51.556875 15.8040625 52.11375 15.703125 52.6875 C13.11263325 65.90794065 5.97576771 75.58913513 -5.09375 83.20703125 C-17.25084542 90.7071748 -29.92042491 92.45534069 -44 91 C-51.6233974 89.10202606 -58.69719916 85.68669806 -65 81 C-65.66515625 80.51015625 -66.3303125 80.0203125 -67.015625 79.515625 C-75.96573218 72.34187497 -80.62018527 62.75725978 -84 52 C-84.495 50.515 -84.495 50.515 -85 49 C-86.28943112 34.49471604 -85.54871548 22.33125821 -76.75 10.3125 C-75.52091651 8.85707565 -74.27022342 7.41966147 -73 6 C-72.03126953 4.85724609 -72.03126953 4.85724609 -71.04296875 3.69140625 C-52.01286519 -17.2452383 -21.52847235 -16.61361211 0 0 Z " fill="#52CE74" transform="translate(468,349)"/>
<path d="M0 0 C8.73458586 7.31925945 17.25523778 18.9735609 18.42211914 30.65844727 C18.52235575 33.61052847 18.51663062 36.54281723 18.46875 39.49609375 C18.47197266 40.48996094 18.47519531 41.48382813 18.47851562 42.5078125 C18.36857599 57.63950452 12.60214107 69.11565361 2.15625 79.99609375 C-6.37488516 87.53358588 -17.43686637 92.42574957 -28.84375 92.99609375 C-29.79507813 93.08890625 -29.79507813 93.08890625 -30.765625 93.18359375 C-42.81585632 93.90841969 -55.64068695 89.66531296 -64.84375 81.99609375 C-71.51200022 75.74939958 -76.30925638 69.40674593 -79.84375 60.99609375 C-80.14925781 60.35800781 -80.45476562 59.71992188 -80.76953125 59.0625 C-85.12682222 49.79035003 -85.44714739 37.32674895 -82.9375 27.41796875 C-81.73571881 24.16699656 -80.39017226 21.09712041 -78.84375 17.99609375 C-78.39773437 17.10148437 -77.95171875 16.206875 -77.4921875 15.28515625 C-70.80494681 3.14351812 -59.93143678 -5.47198986 -46.84375 -10.00390625 C-29.77301233 -13.71596416 -14.11123204 -9.94376653 0 0 Z " fill="#53CD74" transform="translate(151.84375,176.00390625)"/>
<path d="M0 0 C39.27 0 78.54 0 119 0 C118.34 1.65 117.68 3.3 117 5 C116.505 3.515 116.505 3.515 116 2 C78.05 2 40.1 2 1 2 C1 4.31 1 6.62 1 9 C0.67 9 0.34 9 0 9 C0 6.03 0 3.06 0 0 Z " fill="#0B2D27" transform="translate(171,388)"/>
<path d="M0 0 C37.29 0 74.58 0 113 0 C112.67 0.99 112.34 1.98 112 3 C75.7 3 39.4 3 2 3 C0.68 5.31 -0.64 7.62 -2 10 C-2.66 10 -3.32 10 -4 10 C-2.8741386 6.46157845 -1.66905241 3.33810482 0 0 Z " fill="none" transform="translate(246,254)"/>
<path d="M0 0 C1 3 1 3 0 6 C-36.96 6 -73.92 6 -112 6 C-112 5.34 -112 4.68 -112 4 C-111.43493303 3.99761165 -110.86986607 3.99522329 -110.28767586 3.99276257 C-96.55064983 3.93367648 -82.81380235 3.85797764 -69.07696724 3.76428509 C-62.43397347 3.71948161 -55.79104245 3.68024763 -49.14794922 3.65356445 C-42.7417618 3.62763089 -36.33581459 3.58729957 -29.92977524 3.53681374 C-27.48088433 3.52007749 -25.03195182 3.50860551 -22.58301163 3.50238609 C-19.16331812 3.49281835 -15.74424867 3.4648472 -12.32470703 3.43237305 C-11.30331635 3.43380814 -10.28192566 3.43524323 -9.22958374 3.4367218 C-8.30127747 3.42418365 -7.37297119 3.41164551 -6.41653442 3.39872742 C-5.60720018 3.39411845 -4.79786594 3.38950949 -3.96400642 3.38476086 C-3.3158843 3.25778977 -2.66776218 3.13081869 -2 3 C-1.34 2.01 -0.68 1.02 0 0 Z " fill="none" transform="translate(312,340)"/>
<path d="M0 0 C1 3 1 3 -0.13647461 5.85644531 C-0.71921143 7.00209961 -1.30194824 8.14775391 -1.90234375 9.328125 C-2.37154236 10.26001144 -2.37154236 10.26001144 -2.85021973 11.21072388 C-3.86963378 13.22889328 -4.90324144 15.2394035 -5.9375 17.25 C-6.63946879 18.63196099 -7.34072198 20.01428571 -8.04125977 21.39697266 C-12.01725543 29.22433881 -16.07070532 37.00788207 -20.25390625 44.7265625 C-22.54284942 49.01769085 -24.69690957 53.37032781 -26.85449219 57.72851562 C-29.96070513 63.97730692 -33.21370205 70.1451793 -36.47753906 76.31274414 C-39.39778417 81.83658818 -42.25757196 87.38523943 -45 93 C-46.25541557 89.23375329 -45.37061958 87.62811066 -44 84 C-43.34 84 -42.68 84 -42 84 C-41.6596875 82.824375 -41.6596875 82.824375 -41.3125 81.625 C-39.89543211 77.71119345 -38.11497666 74.14015069 -36.21875 70.44140625 C-35.24981521 68.50043111 -34.3866892 66.50672153 -33.5625 64.5 C-32.30470459 61.68253828 -31.00592726 59.34161044 -29.375 56.75 C-25.78894945 50.9440134 -22.99029047 44.79894185 -20.15966797 38.60058594 C-19.79373535 37.8068457 -19.42780273 37.01310547 -19.05078125 36.1953125 C-18.72762939 35.48391113 -18.40447754 34.77250977 -18.0715332 34.03955078 C-16.91278387 31.83399326 -15.49578575 29.98796847 -14 28 C-13.25589144 26.30351337 -12.51450541 24.60545071 -11.8125 22.89111328 C-10.41293036 19.63358131 -8.69430969 16.54904242 -7 13.4375 C-4.59373259 8.99133296 -2.23626705 4.53542911 0 0 Z " fill="#5FBA7C" transform="translate(392,279)"/>
<path d="M0 0 C1.25963011 0.00138269 1.25963011 0.00138269 2.5447073 0.00279331 C3.50529552 0.00141865 4.46588375 0.00004398 5.45558071 -0.00137234 C6.51796963 0.00222294 7.58035854 0.00581821 8.67494106 0.00952244 C10.34302067 0.0093034 10.34302067 0.0093034 12.04479885 0.00907993 C15.74046143 0.00977962 19.43607434 0.01757463 23.13172817 0.02539158 C25.68620686 0.02725556 28.24068589 0.02867956 30.79516506 0.0296793 C36.84418902 0.03311439 42.89319147 0.04100518 48.9422068 0.05102879 C55.82722346 0.062191 62.71224096 0.06770065 69.59726441 0.07272422 C83.76371022 0.08318783 97.93014009 0.1007866 112.09657192 0.12304783 C112.09657192 0.45304783 112.09657192 0.78304783 112.09657192 1.12304783 C74.80657192 1.12304783 37.51657192 1.12304783 -0.90342808 1.12304783 C-1.56342808 3.10304783 -2.22342808 5.08304783 -2.90342808 7.12304783 C-3.51923399 8.50008868 -4.16533197 9.86421356 -4.84874058 11.20898533 C-5.20323277 11.91152439 -5.55772495 12.61406345 -5.92295933 13.33789158 C-6.28776402 14.05074314 -6.6525687 14.7635947 -7.02842808 15.49804783 C-7.40096714 16.23410252 -7.7735062 16.9701572 -8.15733433 17.72851658 C-9.06904028 19.52855141 -9.9857274 21.32606185 -10.90342808 23.12304783 C-11.78183804 20.02583938 -11.89778214 18.2165938 -10.90342808 15.12304783 C-10.24342808 15.12304783 -9.58342808 15.12304783 -8.90342808 15.12304783 C-8.53217808 14.16398533 -8.53217808 14.16398533 -8.15342808 13.18554783 C-2.84668405 0.18402497 -2.84668405 0.18402497 0 0 Z " fill="none" transform="translate(246.90342807769775,252.87695217132568)"/>
<path d="M0 0 C0.66 0.99 1.32 1.98 2 3 C1.34 3 0.68 3 0 3 C-0.8613059 9.71818601 -1.1828468 16.29208987 -1.1875 23.0625 C-1.19974609 24.00416016 -1.21199219 24.94582031 -1.22460938 25.91601562 C-1.25037044 38.25556563 2.74120779 47.70245867 10.859375 57.16796875 C12.18756393 58.49932004 13.58471913 59.76162924 15 61 C14.67 61.99 14.34 62.98 14 64 C3.93176356 55.34760931 -3.14794094 43.15600571 -5 30 C-5.74142598 19.38910026 -4.81559417 9.63118833 0 0 Z " fill="#55AB71" transform="translate(230,452)"/>
<path d="M0 0 C0.95453218 2.75753742 0.97257956 4.13436018 0.375 7.0625 C0.25125 8.031875 0.1275 9.00125 0 10 C1.33333333 11.66666667 1.33333333 11.66666667 3 13 C3.6875 15.1875 3.6875 15.1875 4 17 C4.99 17 5.98 17 7 17 C7.66 19.64 8.32 22.28 9 25 C9.66 25 10.32 25 11 25 C15.04395146 37.70956173 16.18284394 52.56139832 11.1171875 65.203125 C10 67 10 67 7 68 C7.47859241 66.39566191 7.95789558 64.79153584 8.4375 63.1875 C8.70433594 62.29417969 8.97117187 61.40085937 9.24609375 60.48046875 C9.80387873 58.64526945 10.39344575 56.81966274 11 55 C12.05085051 39.79269187 10.89818041 26.89762071 0.6484375 14.76953125 C-0.4379166 13.60337389 -1.56064569 12.46993499 -2.71875 11.375 C-3.1415625 10.92125 -3.564375 10.4675 -4 10 C-3.74880755 6.35770948 -1.66658111 3.18824212 0 0 Z " fill="none" transform="translate(316,431)"/>
<path d="M0 0 C6.34282007 5.52928445 9.48058748 14.54236333 10.26660156 22.80126953 C10.5082078 28.87492552 10.34510566 34.93321943 10 41 C9.34 41 8.68 41 8 41 C7.85304688 41.8353125 7.85304688 41.8353125 7.703125 42.6875 C6.22533072 50.22934669 3.99054308 56.86524879 -2 62 C-2 60.68 -2 59.36 -2 58 C-1.34 58 -0.68 58 0 58 C0.66 55.36 1.32 52.72 2 50 C2.66 50 3.32 50 4 50 C4 49.01 4 48.02 4 47 C4.66 47 5.32 47 6 47 C6 44.69 6 42.38 6 40 C6.66 40 7.32 40 8 40 C7.64655047 25.22637889 7.64655047 25.22637889 4 11 C3.59113834 9.6288176 3.19405027 8.2540317 2.8125 6.875 C2.544375 5.92625 2.27625 4.9775 2 4 C1.34 4 0.68 4 0 4 C0 2.68 0 1.36 0 0 Z " fill="#58AF78" transform="translate(476,359)"/>
<path d="M0 0 C0.66 0.33 1.32 0.66 2 1 C-1.47952871 11.03989013 -9.83114944 18.98456038 -19 24 C-28.54619742 28.41655399 -38.37737292 31.30028008 -49 30 C-49.66 29.34 -50.32 28.68 -51 28 C-50.030625 27.99742187 -49.06125 27.99484375 -48.0625 27.9921875 C-33.32999074 27.67506022 -19.71092802 23.81913831 -9.11328125 13.08984375 C-5.37950148 9.0273035 -2.54538961 4.88714806 0 0 Z " fill="#5DB67B" transform="translate(163,239)"/>
<path d="M0 0 C0.66 0 1.32 0 2 0 C-0.55977968 6.55763783 -7.73531122 9.39571884 -13.7265625 12.33984375 C-26.98753591 17.58820083 -41.99064253 16.23177033 -55 11 C-55 10.67 -55 10.34 -55 10 C-53.35369672 10.14042877 -51.70795821 10.28749329 -50.0625 10.4375 C-48.68771484 10.55931641 -48.68771484 10.55931641 -47.28515625 10.68359375 C-45 11 -45 11 -44 12 C-31.20300559 13.28099665 -17.47804066 13.39597767 -6.7890625 5.33203125 C-5 4 -5 4 -3 4 C-3 3.34 -3 2.68 -3 2 C-2.01 2 -1.02 2 0 2 C0 1.34 0 0.68 0 0 Z " fill="#5EB97C" transform="translate(310,512)"/>
<path d="M0 0 C0.66 0 1.32 0 2 0 C5 5.625 5 5.625 5 9 C5.66 9 6.32 9 7 9 C8.4375 10.71484375 8.4375 10.71484375 10 12.9375 C12.04816804 15.98632637 12.04816804 15.98632637 15 18 C15 18.66 15 19.32 15 20 C15.66 20 16.32 20 17 20 C17.391875 20.4125 17.78375 20.825 18.1875 21.25 C24.57978586 27.42186221 34.43023275 30.4685795 43 32 C43 32.33 43 32.66 43 33 C31.58679553 34.01450706 21.53281483 27.77430443 12.9375 20.875 C6.65472999 15.21183255 2.43581226 8.05236967 0 0 Z " fill="#59B178" transform="translate(386,406)"/>
<path d="M0 0 C-1.58941406 0.39832031 -1.58941406 0.39832031 -3.2109375 0.8046875 C-4.59905163 1.16109518 -5.98706743 1.51788596 -7.375 1.875 C-8.07367188 2.04902344 -8.77234375 2.22304688 -9.4921875 2.40234375 C-13.64874736 3.44145274 -13.64874736 3.44145274 -17 6 C-19.32275177 6.40047444 -21.65739357 6.7397104 -24 7 C-24 7.66 -24 8.32 -24 9 C-26.3125 11.625 -26.3125 11.625 -29 14 C-29.99 14 -30.98 14 -32 14 C-32.33 15.32 -32.66 16.64 -33 18 C-33.66 18 -34.32 18 -35 18 C-35.0825 18.5775 -35.165 19.155 -35.25 19.75 C-36.20531013 22.6159304 -37.78469173 23.9990764 -40 26 C-40.66 25.67 -41.32 25.34 -42 25 C-34.32706562 12.60525985 -25.11422618 4.39623438 -11 0 C-6.88653682 -0.82269264 -4.00092619 -1.14809186 0 0 Z " fill="#5BB97B" transform="translate(273,426)"/>
<path d="M0 0 C0.66 0.99 1.32 1.98 2 3 C1.236875 3.53625 0.47375 4.0725 -0.3125 4.625 C-3.30338766 7.26811003 -4.36996302 9.38557018 -6 13 C-6.680625 14.11375 -7.36125 15.2275 -8.0625 16.375 C-11.841524 22.96567518 -12.33457261 30.06989917 -12.625 37.5 C-12.66367188 38.32242188 -12.70234375 39.14484375 -12.7421875 39.9921875 C-12.83531692 41.9944701 -12.91868985 43.99720262 -13 46 C-16.94686055 40.07970918 -15.62614159 31.24455187 -14.3125 24.4375 C-11.56215137 14.71960151 -6.55521786 7.51922049 0 0 Z " fill="#59B378" transform="translate(83,352)"/>
<path d="M0 0 C6.86700179 6.1566223 8.68484178 13.8324919 9.2265625 22.71484375 C9.51758219 32.4287995 9.50867269 43.19688541 3 51 C3.43007727 47.48770231 3.92599499 44.23001558 5.01171875 40.85546875 C6.18558599 36.27599457 6.42356153 32.08350665 6.4375 27.375 C6.44064209 26.49779297 6.44378418 25.62058594 6.44702148 24.71679688 C6.30397316 16.87861121 4.33786465 11.0915944 1 4 C0.62738502 2.67710659 0.27624944 1.34631911 0 0 Z " fill="#092923" transform="translate(321,98)"/>
<path d="M0 0 C-2.2058424 1.13011652 -4.41445027 2.25415788 -6.625 3.375 C-7.24246094 3.69210938 -7.85992187 4.00921875 -8.49609375 4.3359375 C-9.10839844 4.6453125 -9.72070312 4.9546875 -10.3515625 5.2734375 C-10.90666504 5.55622559 -11.46176758 5.83901367 -12.03369141 6.13037109 C-14 7 -14 7 -17.00439453 7.72167969 C-21.0182942 9.43453859 -21.7185021 11.28088809 -23.578125 15.1796875 C-23.8756366 15.78886017 -24.17314819 16.39803284 -24.47967529 17.02566528 C-25.42239189 18.96683184 -26.33635378 20.92000911 -27.25 22.875 C-27.87834277 24.18188818 -28.5085335 25.48788957 -29.140625 26.79296875 C-30.29974104 29.1926802 -31.44528178 31.5972401 -32.58300781 34.00732422 C-33.69420235 36.35415788 -34.82614035 38.68414057 -36 41 C-37.27818051 37.16545846 -36.45581372 36.2032874 -34.75 32.625 C-34.31171875 31.68914062 -33.8734375 30.75328125 -33.421875 29.7890625 C-32.05738079 27.11255463 -30.54552489 24.57445168 -29 22 C-28.54625 20.906875 -28.0925 19.81375 -27.625 18.6875 C-23.07667739 8.08248248 -23.07667739 8.08248248 -18.88671875 5.8984375 C-16.60625978 5.13956208 -14.33967293 4.54592368 -12 4 C-10.824375 3.608125 -9.64875 3.21625 -8.4375 2.8125 C-7.633125 2.544375 -6.82875 2.27625 -6 2 C-6 1.34 -6 0.68 -6 0 C-2.25 -1.125 -2.25 -1.125 0 0 Z " fill="#5EB97E" transform="translate(306,168)"/>
<path d="M0 0 C0.33 0 0.66 0 1 0 C1.62474764 18.15853053 0.83414958 31.23841349 -12.0078125 45.1796875 C-13.6404156 46.82551006 -15.2924008 48.43253812 -17 50 C-17.495 48.515 -17.495 48.515 -18 47 C-16.71034824 45.62437146 -15.37310707 44.29233607 -14 43 C-13.34 43 -12.68 43 -12 43 C-12 41.68 -12 40.36 -12 39 C-11.01 39 -10.02 39 -9 39 C-8.896875 38.4225 -8.79375 37.845 -8.6875 37.25 C-8 35 -8 35 -6.58984375 33.17578125 C0.31685466 23.72361659 -0.23374764 11.1731371 0 0 Z " fill="#5FBE7E" transform="translate(326,116)"/>
<path d="M0 0 C1 3 1 3 -0.37109375 6.01171875 C-1.05077497 7.24206213 -1.7403125 8.46699151 -2.4375 9.6875 C-3.18678399 11.043229 -3.93411939 12.40003644 -4.6796875 13.7578125 C-5.06608398 14.4580957 -5.45248047 15.15837891 -5.85058594 15.87988281 C-7.66898137 19.2339495 -9.36929896 22.64394589 -11.0625 26.0625 C-11.38855225 26.71887451 -11.71460449 27.37524902 -12.05053711 28.05151367 C-12.70505764 29.37012991 -13.35895142 30.68905744 -14.01220703 32.00830078 C-15.66616058 35.34318784 -17.33370865 38.67126554 -19 42 C-19.5775 43.155 -20.155 44.31 -20.75 45.5 C-21.1625 46.325 -21.575 47.15 -22 48 C-22.87248344 45.5764349 -23.14071476 44.38510454 -22.24316406 41.92871094 C-21.83807617 41.20458008 -21.43298828 40.48044922 -21.015625 39.734375 C-20.57476562 38.92613281 -20.13390625 38.11789062 -19.6796875 37.28515625 C-19.20789063 36.44855469 -18.73609375 35.61195313 -18.25 34.75 C-15.0161981 28.9309836 -12.1776392 23.30063608 -10 17 C-9.34 17 -8.68 17 -8 17 C-8.12375 15.88625 -8.12375 15.88625 -8.25 14.75 C-7.92058287 11.12641153 -6.57919686 10.5075525 -4 8 C-2.51759634 5.40078548 -1.24175555 2.72129407 0 0 Z " fill="#092D24" transform="translate(176,294)"/>
<path d="M0 0 C0.66 0.33 1.32 0.66 2 1 C1.54109375 1.64324219 1.0821875 2.28648437 0.609375 2.94921875 C-8.08300354 15.75038966 -9.66176057 27.93143318 -10 43 C-10.66 43 -11.32 43 -12 43 C-12.05826573 37.66544916 -12.05865004 32.33454653 -12 27 C-12.00821777 26.31599121 -12.01643555 25.63198242 -12.02490234 24.92724609 C-11.72037978 17.77692017 -7.29914475 11.18684882 -4 5 C-3.45666016 3.83210938 -3.45666016 3.83210938 -2.90234375 2.640625 C-2 1 -2 1 0 0 Z " fill="none" transform="translate(235,442)"/>
<path d="M0 0 C-3 2 -3 2 -6.625 3.3125 C-18.23460832 7.59977766 -27.31714827 14.50154731 -33.80859375 25.1171875 C-35 27 -35 27 -37 29 C-36.125 23.25 -36.125 23.25 -35 21 C-34.34 21 -33.68 21 -33 21 C-32.7525 20.443125 -32.505 19.88625 -32.25 19.3125 C-29.35874196 13.96367262 -25.04141834 9.40383465 -20 6 C-19.01 6 -18.02 6 -17 6 C-16.67 5.01 -16.34 4.02 -16 3 C-13.671875 2.05078125 -13.671875 2.05078125 -10.75 1.3125 C-9.79609375 1.06113281 -8.8421875 0.80976563 -7.859375 0.55078125 C-5.15395049 0.0296544 -2.74565683 -0.10521678 0 0 Z " fill="#082923" transform="translate(110,337)"/>
<path d="M0 0 C2.475 0.99 2.475 0.99 5 2 C5 2.66 5 3.32 5 4 C5.99 4.33 6.98 4.66 8 5 C13.22632716 10.34056381 16.27310148 17.14323344 19 24 C19.37382812 24.8765625 19.74765625 25.753125 20.1328125 26.65625 C21.36712633 31.41558622 21.21118727 35.98221502 21.125 40.875 C21.11597656 41.84953125 21.10695312 42.8240625 21.09765625 43.828125 C21.07421623 46.21900728 21.04140442 48.60937261 21 51 C20.67 51 20.34 51 20 51 C19.97421875 49.92363281 19.9484375 48.84726563 19.921875 47.73828125 C19.34738508 30.92526304 15.34480465 16.01968413 3 3.75 C2.4225 3.22921875 1.845 2.7084375 1.25 2.171875 C0.8375 1.78515625 0.425 1.3984375 0 1 C0 0.67 0 0.34 0 0 Z " fill="#062720" transform="translate(151,175)"/>
<path d="M0 0 C0.66 0 1.32 0 2 0 C0.51851488 5.00586025 -1.63690695 9.32173712 -4.125 13.875 C-6.58533594 18.42456536 -9.0149107 22.97513924 -11.265625 27.6328125 C-11.62124512 28.3664502 -11.97686523 29.10008789 -12.34326172 29.85595703 C-13.01979498 31.26185271 -13.68839272 32.67160076 -14.34814453 34.08544922 C-15.15813962 35.76143378 -16.0714868 37.38665579 -17 39 C-18.485 39.495 -18.485 39.495 -20 40 C-20 39.01 -20 38.02 -20 37 C-19.34 37 -18.68 37 -18 37 C-17.79375 36.236875 -17.5875 35.47375 -17.375 34.6875 C-15.76832439 30.37868813 -13.62185631 26.56969536 -11.33984375 22.5859375 C-10.17417391 20.33616072 -9.47000349 18.47187023 -9 16 C-8.34 16 -7.68 16 -7 16 C-6.82984375 15.43152344 -6.6596875 14.86304688 -6.484375 14.27734375 C-4.84932263 9.0677886 -2.86690828 4.64636859 0 0 Z " fill="#082A22" transform="translate(231,186)"/>
<path d="M0 0 C1 3 1 3 -0.37109375 6.23046875 C-1.05006592 7.55456602 -1.73962691 8.8732664 -2.4375 10.1875 C-3.18127024 11.62876145 -3.92475142 13.0701721 -4.66796875 14.51171875 C-5.05388184 15.25212402 -5.43979492 15.9925293 -5.83740234 16.75537109 C-7.68202033 20.3167776 -9.46407826 23.90890707 -11.25 27.5 C-11.87988751 28.76057703 -12.5100863 30.02099857 -13.140625 31.28125 C-13.44033203 31.88066406 -13.74003906 32.48007812 -14.04882812 33.09765625 C-15.69921875 36.3984375 -17.34960938 39.69921875 -19 43 C-20.03223347 39.42992158 -19.91477866 38.11715668 -18.125 34.8125 C-17.66222656 33.93980469 -17.19945312 33.06710937 -16.72265625 32.16796875 C-16.15417969 31.12253906 -15.58570313 30.07710938 -15 29 C-13.9064375 26.94534931 -12.81804942 24.88800193 -11.72973633 22.83056641 C-10.95115102 21.35938053 -10.17103783 19.88900223 -9.3894043 18.41943359 C-6.15459467 12.33014048 -3.04074594 6.18881232 0 0 Z " fill="none" transform="translate(219,303)"/>
<path d="M0 0 C1.12377697 3.30435084 0.89554742 5.0506862 -0.4375 8.25 C-0.72496094 8.95640625 -1.01242188 9.6628125 -1.30859375 10.390625 C-1.53675781 10.92171875 -1.76492187 11.4528125 -2 12 C-2.66 12 -3.32 12 -4 12 C-3.67 12.99 -3.34 13.98 -3 15 C-4.07421875 16.9453125 -4.07421875 16.9453125 -5.6875 19.125 C-8.79348608 23.53419702 -10.99358993 28.00757966 -13 33 C-13.66 33 -14.32 33 -15 33 C-14.47643044 28.42883497 -13.32614581 25.43706904 -10.875 21.5625 C-6.65998108 14.62473595 -3.32234751 7.39197076 0 0 Z " fill="#5ABC79" transform="translate(195,260)"/>
<path d="M0 0 C2.0529415 3.07941225 3.45358604 6.13952352 5 9.5 C9.17066311 18.17973282 15.07077767 25.40397412 23 31 C22.67 31.66 22.34 32.32 22 33 C20.5574598 31.92338719 19.12116839 30.83839897 17.6875 29.75 C16.88699219 29.14671875 16.08648437 28.5434375 15.26171875 27.921875 C13.09632162 26.08184843 11.52561618 24.38963828 10 22 C10 21.34 10 20.68 10 20 C9.40703125 19.78859375 8.8140625 19.5771875 8.203125 19.359375 C5.18447712 17.49680503 4.30743582 15.41206666 2.75 12.25 C1.96882812 10.71085937 1.96882812 10.71085937 1.171875 9.140625 C-0.05412211 5.85495274 -0.22884491 3.4742818 0 0 Z " fill="#082922" transform="translate(226,488)"/>
<path d="M0 0 C1.15449959 3.46349877 0.91260464 3.82318618 -0.58984375 6.95703125 C-0.95835449 7.73369141 -1.32686523 8.51035156 -1.70654297 9.31054688 C-2.11275879 10.13619141 -2.51897461 10.96183594 -2.9375 11.8125 C-3.34629395 12.65748047 -3.75508789 13.50246094 -4.17626953 14.37304688 C-14.12532255 34.69353649 -14.12532255 34.69353649 -19 39 C-18.505 36.03 -18.505 36.03 -18 33 C-17.34 33 -16.68 33 -16 33 C-15.01 29.7 -14.02 26.4 -13 23 C-12.34 23 -11.68 23 -11 23 C-10.76539063 22.19304687 -10.53078125 21.38609375 -10.2890625 20.5546875 C-8.69999965 16.1727263 -6.59350886 12.21537571 -4.375 8.125 C-3.95476562 7.34125 -3.53453125 6.5575 -3.1015625 5.75 C-2.0718978 3.83107943 -1.03652433 1.91522397 0 0 Z " fill="#082822" transform="translate(197,253)"/>
<path d="M0 0 C0.33 0 0.66 0 1 0 C1.71311849 13.00780953 1.33214705 23.35278651 -5 35 C-5.66 35.66 -6.32 36.32 -7 37 C-7.25 31.375 -7.25 31.375 -5 28 C-4.30899447 26.00827818 -3.64097297 24.00838196 -3 22 C-2.67 21.34 -2.34 20.68 -2 20 C-1.781346 18.48181898 -1.60981021 16.95666749 -1.46484375 15.4296875 C-1.33432617 14.08583984 -1.33432617 14.08583984 -1.20117188 12.71484375 C-1.11416016 11.77769531 -1.02714844 10.84054688 -0.9375 9.875 C-0.84662109 8.93011719 -0.75574219 7.98523438 -0.66210938 7.01171875 C-0.43785901 4.67479389 -0.21730943 2.33757884 0 0 Z " fill="#58B478" transform="translate(485,207)"/>
<path d="M0 0 C0.66 0.33 1.32 0.66 2 1 C0.66666667 2.33333333 -0.66666667 3.66666667 -2 5 C-2.763125 5.78375 -3.52625 6.5675 -4.3125 7.375 C-7 10 -7 10 -8.6640625 11.265625 C-14.22596284 15.52893187 -16.96810066 20.75850759 -20 27 C-20.9745192 24.43454885 -21.13089117 23.3295043 -20.1015625 20.73828125 C-14.93579371 12.2516611 -8.61564854 5.0810235 0 0 Z " fill="#5CB37A" transform="translate(94,171)"/>
<path d="M0 0 C2.12161334 2.12161334 2.92986249 3.7733159 4.125 6.5 C4.47820312 7.2940625 4.83140625 8.088125 5.1953125 8.90625 C6 11 6 11 6 13 C6.66 13 7.32 13 8 13 C9.41601562 15.63671875 9.41601562 15.63671875 10.83203125 18.2734375 C12.04763493 20.30502365 12.04763493 20.30502365 15 22 C15 22.66 15 23.32 15 24 C16.32 24.33 17.64 24.66 19 25 C19 25.66 19 26.32 19 27 C19.804375 27.268125 20.60875 27.53625 21.4375 27.8125 C22.283125 28.204375 23.12875 28.59625 24 29 C24.33 29.99 24.66 30.98 25 32 C15.21574381 28.65733596 8.04332666 19.71374773 3 11 C1.26742585 7.34921876 0 4.0991436 0 0 Z " fill="#61BB7E" transform="translate(71,231)"/>
<path d="M0 0 C0.66 0.33 1.32 0.66 2 1 C1.38511719 1.87140625 0.77023438 2.7428125 0.13671875 3.640625 C-8.17606477 15.74688633 -10.3690495 26.29232626 -11 41 C-11.33 41 -11.66 41 -12 41 C-12.41305349 30.57039934 -12.68880257 21.60006658 -8 12 C-7.525625 10.906875 -7.05125 9.81375 -6.5625 8.6875 C-4.67283153 5.43727024 -2.48400616 2.81968267 0 0 Z " fill="#092E23" transform="translate(236,91)"/>
<path d="M0 0 C0.33 0.66 0.66 1.32 1 2 C1.66 2.33 2.32 2.66 3 3 C2.2575 3.70125 1.515 4.4025 0.75 5.125 C-1.9271334 7.92382128 -3.89062336 10.76562249 -6 14 C-8.72564942 17.81590919 -12.61702647 18.06592367 -17 19 C-12 14 -12 14 -9.625 11.75 C-6.10717577 8.06466033 -3.06980395 4.06063404 0 0 Z " fill="#0E2A29" transform="translate(479,414)"/>
<path d="M0 0 C0.33 0.99 0.66 1.98 1 3 C-7.64677549 13.38030778 -15.52843253 20.31080878 -29 23 C-29 22.34 -29 21.68 -29 21 C-25.535 20.505 -25.535 20.505 -22 20 C-22 19.34 -22 18.68 -22 18 C-17.33333333 15.66666667 -12.66666667 13.33333333 -8 11 C-8 10.34 -8 9.68 -8 9 C-7.34 9 -6.68 9 -6 9 C-6 8.34 -6 7.68 -6 7 C-5.34 7 -4.68 7 -4 7 C-3.71125 6.401875 -3.4225 5.80375 -3.125 5.1875 C-2 3 -2 3 0 0 Z " fill="#5BB279" transform="translate(476,244)"/>
<path d="M0 0 C0.66 0.33 1.32 0.66 2 1 C0.78852264 5.54304009 -0.24592169 7.30175622 -4 10 C-4.433125 11.2375 -4.433125 11.2375 -4.875 12.5 C-6.44783809 15.99519575 -8.52308558 16.62372137 -12 18 C-12.66 18 -13.32 18 -14 18 C-14 18.66 -14 19.32 -14 20 C-15.98 20.33 -17.96 20.66 -20 21 C-19.34 20.484375 -18.68 19.96875 -18 19.4375 C-17.01 18.633125 -16.02 17.82875 -15 17 C-14.07574219 16.27103516 -14.07574219 16.27103516 -13.1328125 15.52734375 C-7.65882332 11.02248495 -3.82691026 5.94366999 0 0 Z " fill="#0D3026" transform="translate(322,500)"/>
<path d="M0 0 C-1.26181547 3.7854464 -2.99299935 4.32215868 -6.43359375 6.05859375 C-7.15675781 6.41050781 -7.87992187 6.76242187 -8.625 7.125 C-9.32496094 7.48464844 -10.02492188 7.84429687 -10.74609375 8.21484375 C-17.25207323 11.43765733 -23.19102642 12.14392105 -30.4375 12.0625 C-31.48808594 12.05347656 -32.53867187 12.04445313 -33.62109375 12.03515625 C-34.40613281 12.02355469 -35.19117188 12.01195312 -36 12 C-36 11.67 -36 11.34 -36 11 C-35.35675781 10.97421875 -34.71351563 10.9484375 -34.05078125 10.921875 C-25.16098381 10.36388486 -16.73285323 8.36926066 -8.73828125 4.3671875 C-6 3 -6 3 -4 3 C-4 2.34 -4 1.68 -4 1 C-2 0 -2 0 0 0 Z " fill="#5FB87E" transform="translate(466,428)"/>
<path d="M0 0 C2.99635827 1.10976232 4.15892782 2.19979497 6.1875 4.75 C11.42432613 11.33206588 19.70652576 15.10325017 27 19 C24.64136461 19.83557039 23.39594511 20.13403589 20.9921875 19.3203125 C14.55261021 15.68468399 9.30794842 11.1245996 4 6 C3.24332031 5.28972656 2.48664063 4.57945312 1.70703125 3.84765625 C0 2 0 2 0 0 Z " fill="#092B24" transform="translate(391,419)"/>
<path d="M0 0 C-1.67662147 4.44218265 -3.74495879 8.63867269 -5.875 12.875 C-6.21402344 13.55691406 -6.55304688 14.23882812 -6.90234375 14.94140625 C-9.12766011 19.38357768 -11.50003014 23.70632979 -14 28 C-14.90892631 25.52415166 -15.16571402 24.40255644 -14.14453125 21.921875 C-13.70496094 21.20515625 -13.26539063 20.4884375 -12.8125 19.75 C-12.34972656 18.96753906 -11.88695312 18.18507813 -11.41015625 17.37890625 C-10.94480469 16.59386719 -10.47945313 15.80882812 -10 15 C-9.23399637 13.57096372 -8.48266787 12.13391074 -7.75 10.6875 C-7.43546875 10.07261719 -7.1209375 9.45773437 -6.796875 8.82421875 C-5.93323442 6.98872173 -5.93323442 6.98872173 -5.48046875 4.87890625 C-4.70911666 1.86248062 -3.18574262 0 0 0 Z " fill="#0A2A23" transform="translate(331,307)"/>
<path d="M0 0 C0.66 0.33 1.32 0.66 2 1 C1.58427734 2.14662109 1.58427734 2.14662109 1.16015625 3.31640625 C-1.78959048 12.0396786 -2.74604831 19.81964637 -3 29 C-3.66 29 -4.32 29 -5 29 C-5.24853807 18.39570883 -5.26980371 9.58146128 0 0 Z " fill="#082923" transform="translate(71,366)"/>
<path d="M0 0 C0.25394531 0.51949219 0.50789062 1.03898437 0.76953125 1.57421875 C5.24286617 10.39307902 9.47425568 18.41497372 17 25 C16.67 25.99 16.34 26.98 16 28 C8.81884599 21.82869577 1.20427066 12.856073 0 3.1875 C0 2.135625 0 1.08375 0 0 Z " fill="#5CB47A" transform="translate(228,488)"/>
<path d="M0 0 C1.12699702 3.32839785 0.8504105 5.05785468 -0.375 8.3125 C-2.60330938 15.09917744 -2.72570128 21.90606751 -3 29 C-3.66 29 -4.32 29 -5 29 C-5.39475064 19.11661363 -5.68769893 8.53154839 0 0 Z " fill="#59AC74" transform="translate(230,103)"/>
<path d="M0 0 C0.96012826 2.54117779 1.1679763 3.61344366 0.06640625 6.1484375 C-3.42189184 11.31293077 -7.21108526 16.30475629 -13 19 C-15.2421875 18.6484375 -15.2421875 18.6484375 -17 18 C-16.43152344 17.59910156 -15.86304688 17.19820313 -15.27734375 16.78515625 C-9.04550725 12.19710968 -3.50878022 7.01756045 0 0 Z " fill="#0E2D28" transform="translate(479,242)"/>
<path d="M0 0 C0.66 0 1.32 0 2 0 C2.26554687 0.71027344 2.53109375 1.42054688 2.8046875 2.15234375 C3.15789062 3.07144531 3.51109375 3.99054688 3.875 4.9375 C4.22304687 5.85402344 4.57109375 6.77054687 4.9296875 7.71484375 C5.7819086 10.14941056 5.7819086 10.14941056 8 11 C8.4125 11.9075 8.825 12.815 9.25 13.75 C11.35906724 17.66683916 13.48284044 19.34259055 17 22 C16.34 22.66 15.68 23.32 15 24 C8.976802 18.3418443 3.06660467 11.75670592 0 4 C0 2.68 0 1.36 0 0 Z " fill="#5EB97B" transform="translate(71,404)"/>
<path d="M0 0 C3.07734984 1.37599563 5.20053841 2.98604856 7.625 5.3125 C11.99071246 9.23673592 16.69077764 11.58917964 22 14 C23.33604881 14.66120783 24.67034635 15.32602418 26 16 C22.58368829 17.13376498 22.04334639 17.01749065 18.4375 15.5625 C12.96483527 12.61408895 7.73634215 9.02240823 3 5 C3 4.34 3 3.68 3 3 C2.01 2.67 1.02 2.34 0 2 C0 1.34 0 0.68 0 0 Z " fill="#0A2A22" transform="translate(79,251)"/>
<path d="M0 0 C0 0.66 0 1.32 0 2 C-0.556875 1.80664062 -1.11375 1.61328125 -1.6875 1.4140625 C-11.25523531 -1.85060394 -19.89550845 -3.41467884 -30 -4 C-30 -4.33 -30 -4.66 -30 -5 C-18.1944988 -6.43431323 -10.46849751 -5.92267813 0 0 Z " fill="#103228" transform="translate(144,169)"/>
<path d="M0 0 C0.95465783 2.16967689 1.14401212 3.56328793 0.3984375 5.82421875 C-0.35870385 7.5684743 -1.17609198 9.28627131 -2 11 C-2.66 11 -3.32 11 -4 11 C-4.11214844 11.71542969 -4.22429687 12.43085938 -4.33984375 13.16796875 C-5.04456005 16.19115998 -6.13287798 18.56322688 -7.5625 21.3125 C-8.01753906 22.19550781 -8.47257812 23.07851563 -8.94140625 23.98828125 C-9.29074219 24.65214844 -9.64007813 25.31601562 -10 26 C-10.66 25.67 -11.32 25.34 -12 25 C-10.3033998 20.48456926 -8.17450282 16.23529452 -6 11.9375 C-5.64421875 11.23044922 -5.2884375 10.52339844 -4.921875 9.79492188 C-4.24300193 8.44604162 -3.56336117 7.09754736 -2.8828125 5.74951172 C-1.91696658 3.8354487 -0.95680677 1.9185969 0 0 Z " fill="#58AB77" transform="translate(334,301)"/>
<path d="M0 0 C0.66 0.33 1.32 0.66 2 1 C0.66188443 4.48729302 -0.85896732 7.77920551 -2.6015625 11.08203125 C-3.09140625 12.01337891 -3.58125 12.94472656 -4.0859375 13.90429688 C-4.59382812 14.86400391 -5.10171875 15.82371094 -5.625 16.8125 C-6.140625 17.79154297 -6.65625 18.77058594 -7.1875 19.77929688 C-8.4561409 22.18736525 -9.72703966 24.594213 -11 27 C-11.99355203 23.87488087 -12.0787723 23.19553766 -10.78515625 19.984375 C-10.21667969 18.91703125 -9.64820313 17.8496875 -9.0625 16.75 C-8.49660156 15.67234375 -7.93070313 14.5946875 -7.34765625 13.484375 C-6.90292969 12.66453125 -6.45820313 11.8446875 -6 11 C-5.34 11 -4.68 11 -4 11 C-3.79503906 10.37351562 -3.59007812 9.74703125 -3.37890625 9.1015625 C-3.10949219 8.28429687 -2.84007812 7.46703125 -2.5625 6.625 C-2.29566406 5.81289063 -2.02882812 5.00078125 -1.75390625 4.1640625 C-1 2 -1 2 0 0 Z " fill="none" transform="translate(233,275)"/>
<path d="M0 0 C0.99 0 1.98 0 3 0 C2.02460129 2.46255369 1.03955612 4.91088678 -0.03515625 7.33203125 C-3.41215132 15.4856125 -3.78156407 23.29532806 -4 32 C-4.33 32 -4.66 32 -5 32 C-5.05830787 28.60423938 -5.09369946 25.2086085 -5.125 21.8125 C-5.14175781 20.85279297 -5.15851563 19.89308594 -5.17578125 18.90429688 C-5.18222656 17.97294922 -5.18867187 17.04160156 -5.1953125 16.08203125 C-5.20578613 15.22843018 -5.21625977 14.3748291 -5.22705078 13.49536133 C-4.97204194 10.69273185 -4.15541422 8.55270581 -3 6 C-2.34 6 -1.68 6 -1 6 C-0.67 4.02 -0.34 2.04 0 0 Z " fill="#0B2F26" transform="translate(72,191)"/>
<path d="M0 0 C0.33 0 0.66 0 1 0 C1.37058824 5.55882353 1.37058824 5.55882353 -0.3125 7.5625 C-0.869375 8.036875 -1.42625 8.51125 -2 9 C-2.474375 9.845625 -2.94875 10.69125 -3.4375 11.5625 C-5.13062309 14.20377202 -6.19812216 14.78585294 -9 16 C-9.33 16.66 -9.66 17.32 -10 18 C-11.32 17.67 -12.64 17.34 -14 17 C-13.154375 16.38125 -12.30875 15.7625 -11.4375 15.125 C-6.6059713 11.13323701 -2.79460646 5.58921291 0 0 Z " fill="#0D3127" transform="translate(164,413)"/>
<path d="M0 0 C0.66 0 1.32 0 2 0 C1.38655243 1.68698082 0.70286303 3.34827188 0 5 C-0.433125 6.175625 -0.86625 7.35125 -1.3125 8.5625 C-4.0094063 13.27693925 -8.86639203 14.00239594 -13.80859375 15.37109375 C-16.65178708 15.93138032 -19.11627752 16.13475339 -22 16 C-17.41887818 11.61805739 -11.08938411 11 -5 11 C-4.731875 10.113125 -4.46375 9.22625 -4.1875 8.3125 C-3.0749365 5.2090334 -1.89804222 2.68889315 0 0 Z " fill="#072721" transform="translate(276,412)"/>
<path d="M0 0 C0.66 0 1.32 0 2 0 C0.79618552 2.49361571 -0.45428722 4.68143083 -2 7 C-2.66 7 -3.32 7 -4 7 C-4.26554687 7.66386719 -4.53109375 8.32773438 -4.8046875 9.01171875 C-7.203125 15.0078125 -9.6015625 21.00390625 -12 27 C-12.66 26.67 -13.32 26.34 -14 26 C-11.55865636 16.48717824 -7.00516313 7.00516313 0 0 Z " fill="#0A3025" transform="translate(396,179)"/>
<path d="M0 0 C0.66 0.33 1.32 0.66 2 1 C-3.5862069 15.43103448 -3.5862069 15.43103448 -7 19 C-7.66 19 -8.32 19 -9 19 C-7.6077541 14.37324343 -5.70479016 10.35313769 -3.375 6.125 C-2.74335938 4.97257812 -2.11171875 3.82015625 -1.4609375 2.6328125 C-0.97882813 1.76398438 -0.49671875 0.89515625 0 0 Z " fill="#12352C" transform="translate(337,390)"/>
<path d="M0 0 C0.33 0 0.66 0 1 0 C0.67 8.91 0.34 17.82 0 27 C-2.01616137 23.97575795 -2.25469543 23.37292899 -2.265625 19.98046875 C-2.26820313 19.20509766 -2.27078125 18.42972656 -2.2734375 17.63085938 C-2.26570313 16.82455078 -2.25796875 16.01824219 -2.25 15.1875 C-2.25773437 14.39279297 -2.26546875 13.59808594 -2.2734375 12.77929688 C-2.25804462 8.12679944 -1.77527784 4.37479183 0 0 Z " fill="#5EBF7E" transform="translate(385,374)"/>
<path d="M0 0 C0.66 0.33 1.32 0.66 2 1 C1.45730469 1.37511719 0.91460937 1.75023437 0.35546875 2.13671875 C-3.78224087 5.09648581 -6.59573603 7.43189845 -9 12 C-10.31387169 13.35251497 -11.64426252 14.68945377 -13 16 C-13.33 16.66 -13.66 17.32 -14 18 C-14.66 18 -15.32 18 -16 18 C-16 18.99 -16 19.98 -16 21 C-16.66 21 -17.32 21 -18 21 C-15.55288498 13.16923193 -9.21200027 6.1892012 -3 1 C-2.01 0.67 -1.02 0.34 0 0 Z " fill="#5AB57A" transform="translate(405,347)"/>
<path d="M0 0 C1.19127947 4.01409388 0.73846103 6.12797316 -1 10 C-3.3125 12.5625 -3.3125 12.5625 -6 15 C-6.928125 15.928125 -7.85625 16.85625 -8.8125 17.8125 C-9.534375 18.534375 -10.25625 19.25625 -11 20 C-11.66 19.67 -12.32 19.34 -13 19 C-12.39671875 18.29875 -11.7934375 17.5975 -11.171875 16.875 C-6.6165295 11.46736406 -2.81819095 6.49409218 0 0 Z M0 8 C0.33 8.66 0.66 9.32 1 10 C0.34 9.67 -0.32 9.34 -1 9 C-0.67 8.67 -0.34 8.34 0 8 Z " fill="#0E2F29" transform="translate(166,237)"/>
<path d="M0 0 C0.33 0 0.66 0 1 0 C0.64817881 9.21771523 0.64817881 9.21771523 -1.8125 12.1875 C-2.534375 12.785625 -3.25625 13.38375 -4 14 C-5.46776454 16.27379116 -6.71531124 18.61414945 -8 21 C-8.66 21 -9.32 21 -10 21 C-8.27502493 16.3970402 -6.0904129 12.06744176 -3.875 7.6875 C-3.50246094 6.94693359 -3.12992188 6.20636719 -2.74609375 5.44335938 C-1.83255194 3.62798783 -0.91652513 1.81386718 0 0 Z " fill="#5BB87B" transform="translate(233,186)"/>
<path d="M0 0 C0.66 0.33 1.32 0.66 2 1 C-4.93 14.365 -4.93 14.365 -12 28 C-13.23593891 24.29218328 -12.5678132 23.32489747 -11.0625 19.8125 C-10.68222656 18.91144531 -10.30195313 18.01039063 -9.91015625 17.08203125 C-9.60980469 16.39496094 -9.30945313 15.70789063 -9 15 C-8.34 15 -7.68 15 -7 15 C-6.5978125 13.7315625 -6.5978125 13.7315625 -6.1875 12.4375 C-4.9521405 8.86145933 -3.523012 5.46139092 -2 2 C-1.34 2 -0.68 2 0 2 C0 1.34 0 0.68 0 0 Z " fill="#5FBB7D" transform="translate(344,373)"/>
<path d="M0 0 C4.41182849 0.62668018 8.07023361 2.30983059 12 4.3125 C12.60328125 4.60833984 13.2065625 4.90417969 13.828125 5.20898438 C17.59444839 7.10442756 20.80281582 9.2569613 24 12 C23.67 12.99 23.34 13.98 23 15 C21.2925002 13.71937515 19.62626404 12.38232443 18 11 C18 10.34 18 9.68 18 9 C16.68 9 15.36 9 14 9 C14 8.34 14 7.68 14 7 C13.175 6.7525 12.35 6.505 11.5 6.25 C7.47626529 4.81295189 3.78020976 2.97645485 0 1 C0 0.67 0 0.34 0 0 Z " fill="#5DB67C" transform="translate(130,166)"/>
<path d="M0 0 C7.45040238 2.66273184 13.78457222 8.11161379 19 14 C19 14.66 19 15.32 19 16 C15.63820226 14.55922954 13.40843732 12.75249979 11 10 C11 9.34 11 8.68 11 8 C10.484375 7.7525 9.96875 7.505 9.4375 7.25 C6.22815849 5.60418384 3.12414336 3.8023904 0 2 C0 1.34 0 0.68 0 0 Z " fill="#56AE74" transform="translate(457,343)"/>
<path d="M0 0 C3.3125 -0.1875 3.3125 -0.1875 7 0 C7.4434375 0.45375 7.886875 0.9075 8.34375 1.375 C10.67199215 3.65931305 13.0949979 4.22317139 16.1875 5.1875 C17.81751953 5.70376953 17.81751953 5.70376953 19.48046875 6.23046875 C20.31191406 6.48441406 21.14335937 6.73835938 22 7 C22 7.33 22 7.66 22 8 C13.67404102 7.7177641 7.37484982 4.72731977 0 1 C0 0.67 0 0.34 0 0 Z " fill="#53AD72" transform="translate(402,259)"/>
<path d="M0 0 C0.66 0 1.32 0 2 0 C1.67 2.31 1.34 4.62 1 7 C0.01 7.33 -0.98 7.66 -2 8 C-2.12375 8.7425 -2.2475 9.485 -2.375 10.25 C-2.95486701 12.80141485 -3.73708739 14.7267573 -5 17 C-5.66 17 -6.32 17 -7 17 C-6.37954537 12.76677156 -4.89476441 9.47709705 -2.9375 5.6875 C-2.38964844 4.61886719 -1.84179688 3.55023438 -1.27734375 2.44921875 C-0.64505859 1.23685547 -0.64505859 1.23685547 0 0 Z " fill="#59BA7B" transform="translate(319,330)"/>
<path d="M0 0 C0.33 0 0.66 0 1 0 C1.08820927 3.16648655 1.1407905 6.33265092 1.1875 9.5 C1.22520508 10.8303125 1.22520508 10.8303125 1.26367188 12.1875 C1.32952206 18.15791641 0.6519527 22.60955069 -2 28 C-2.99 28.33 -3.98 28.66 -5 29 C-4.52140759 27.39566191 -4.04210442 25.79153584 -3.5625 24.1875 C-3.29566406 23.29417969 -3.02882813 22.40085937 -2.75390625 21.48046875 C-2.19612127 19.64526945 -1.60655425 17.81966274 -1 16 C-0.77202438 13.26710707 -0.58331813 10.54957796 -0.4375 7.8125 C-0.37272461 6.68811523 -0.37272461 6.68811523 -0.30664062 5.54101562 C-0.20077315 3.69421625 -0.0999024 1.84713166 0 0 Z " fill="#0F342A" transform="translate(328,470)"/>
<path d="M0 0 C3.34249629 0.59687434 5.46436342 1.73603877 8 4 C8 4.66 8 5.32 8 6 C8.99 6.33 9.98 6.66 11 7 C12.640625 8.70703125 12.640625 8.70703125 14.25 10.8125 C14.79140625 11.49957031 15.3328125 12.18664062 15.890625 12.89453125 C17 15 17 15 16.671875 17.26171875 C16.33929688 18.12216797 16.33929688 18.12216797 16 19 C15.5153125 18.28714844 15.030625 17.57429688 14.53125 16.83984375 C10.62302633 11.25559338 6.79054519 6.52009209 1.46875 2.2421875 C0.9840625 1.83226562 0.499375 1.42234375 0 1 C0 0.67 0 0.34 0 0 Z " fill="#092A23" transform="translate(465,347)"/>
<path d="M0 0 C0.66 0 1.32 0 2 0 C1.43501844 3.53113475 -0.21480055 6.22086928 -2.0234375 9.265625 C-3.11434909 11.11119388 -3.11434909 11.11119388 -4.0625 13.6875 C-5.05908633 16.14574627 -6.33071306 17.95132967 -8 20 C-9 17 -9 17 -8.28735352 15.09887695 C-7.71392212 14.05413208 -7.71392212 14.05413208 -7.12890625 12.98828125 C-6.51499023 11.85229492 -6.51499023 11.85229492 -5.88867188 10.69335938 C-5.45103516 9.90767578 -5.01339844 9.12199219 -4.5625 8.3125 C-4.12873047 7.51521484 -3.69496094 6.71792969 -3.24804688 5.89648438 C-2.17425237 3.92589446 -1.09135818 1.96090073 0 0 Z " fill="none" transform="translate(237,272)"/>
<path d="M0 0 C1.32 0.33 2.64 0.66 4 1 C4 1.66 4 2.32 4 3 C4.57105469 3.21914062 5.14210938 3.43828125 5.73046875 3.6640625 C8.72672382 5.42777891 10.26199878 7.57852119 12.3125 10.375 C13.38951172 11.80972656 13.38951172 11.80972656 14.48828125 13.2734375 C16 16 16 16 15.73046875 18.3515625 C15.48941406 18.89554688 15.24835938 19.43953125 15 20 C14.5875 19.29875 14.175 18.5975 13.75 17.875 C10.18589184 12.01967945 6.52876471 7.13300704 1.50390625 2.4609375 C1.00761719 1.97882813 0.51132812 1.49671875 0 1 C0 0.67 0 0.34 0 0 Z " fill="#092C22" transform="translate(466,175)"/>
<path d="M0 0 C0.87840996 3.09720845 0.99435406 4.90645403 0 8 C-0.66 8 -1.32 8 -2 8 C-1.938125 9.1446875 -1.938125 9.1446875 -1.875 10.3125 C-2 13 -2 13 -4 16 C-4.66 16 -5.32 16 -6 16 C-6 16.66 -6 17.32 -6 18 C-6.66 18 -7.32 18 -8 18 C-6.10463724 11.48180123 -3.4821006 5.82185199 0 0 Z " fill="none" transform="translate(286,396)"/>
<path d="M0 0 C0.99 0.33 1.98 0.66 3 1 C2.34 1 1.68 1 1 1 C0.75507813 1.81726563 0.51015625 2.63453125 0.2578125 3.4765625 C-1.22547612 7.63161324 -3.11800949 11.45321289 -5.125 15.375 C-5.49753906 16.11105469 -5.87007812 16.84710938 -6.25390625 17.60546875 C-7.1656122 19.40550358 -8.08229932 21.20301402 -9 23 C-9.87840996 19.90279155 -9.99435406 18.09354597 -9 15 C-8.34 15 -7.68 15 -7 15 C-6.62875 14.0409375 -6.62875 14.0409375 -6.25 13.0625 C-1.55172414 1.55172414 -1.55172414 1.55172414 0 0 Z " fill="none" transform="translate(245,253)"/>
<path d="M0 0 C4.45991062 0.53518927 7.06274922 2.19595189 10.625 4.875 C12.03652344 5.92300781 12.03652344 5.92300781 13.4765625 6.9921875 C15.4698223 8.57815582 17.26261199 10.14600877 19 12 C18.67 12.99 18.34 13.98 18 15 C17.401875 14.34 16.80375 13.68 16.1875 13 C12.65061023 9.43244356 8.51445024 6.66313596 4.42578125 3.76953125 C2 2 2 2 0 0 Z " fill="#5FBA7E" transform="translate(297,80)"/>
<path d="M0 0 C4.62561811 6.93842717 5.43494403 13.88415755 5.1875 22.0625 C5.17396484 22.92810547 5.16042969 23.79371094 5.14648438 24.68554688 C5.1115933 26.79064174 5.05780665 28.89540974 5 31 C4.67 31 4.34 31 4 31 C4 25.06 4 19.12 4 13 C3.34 13 2.68 13 2 13 C-0.28571429 4.57142857 -0.28571429 4.57142857 0 0 Z " fill="#54A371" transform="translate(323,455)"/>
<path d="M0 0 C-0.92941406 0.37511719 -1.85882813 0.75023437 -2.81640625 1.13671875 C-9.37959285 3.83607959 -15.43861554 6.49792687 -21 11 C-21.66 10.67 -22.32 10.34 -23 10 C-8.096 -2.816 -8.096 -2.816 0 0 Z " fill="#072721" transform="translate(108,166)"/>
<path d="M0 0 C0 0.66 0 1.32 0 2 C-1.01320313 2.48919922 -1.01320313 2.48919922 -2.046875 2.98828125 C-3.38492187 3.64376953 -3.38492187 3.64376953 -4.75 4.3125 C-5.63171875 4.74175781 -6.5134375 5.17101562 -7.421875 5.61328125 C-10.02200476 6.90129554 -10.02200476 6.90129554 -12.078125 8.73046875 C-14 10 -14 10 -16.25 9.6875 C-16.8275 9.460625 -17.405 9.23375 -18 9 C-16.25156882 7.87256334 -14.5011906 6.7481458 -12.75 5.625 C-11.77546875 4.99851562 -10.8009375 4.37203125 -9.796875 3.7265625 C-3.760181 0 -3.760181 0 0 0 Z " fill="#5AB579" transform="translate(261,77)"/>
<path d="M0 0 C1.03640625 0.41572266 1.03640625 0.41572266 2.09375 0.83984375 C5.22563998 2.09007402 8.35969726 3.33352638 11.5 4.5625 C12.6034375 4.99691406 13.706875 5.43132812 14.84375 5.87890625 C17.57919712 6.85053165 20.14328877 7.52565802 23 8 C23 8.33 23 8.66 23 9 C16.35138636 9.59098788 11.08916701 7.55502567 5 5 C4.25105469 4.68804687 3.50210937 4.37609375 2.73046875 4.0546875 C1 3 1 3 0 0 Z " fill="#5EB97E" transform="translate(406,430)"/>
<path d="M0 0 C1.64228862 2.49557737 2.08540243 3.56769158 1.49609375 6.55078125 C-0.73361378 12.36776733 -3.1026099 17.12826237 -7 22 C-7.33 20.68 -7.66 19.36 -8 18 C-7.34 18 -6.68 18 -6 18 C-5.34 15.36 -4.68 12.72 -4 10 C-3.34 10 -2.68 10 -2 10 C-2 9.01 -2 8.02 -2 7 C-1.34 7 -0.68 7 0 7 C0 4.69 0 2.38 0 0 Z " fill="#5FBD7D" transform="translate(482,399)"/>
<path d="M0 0 C3.73069283 0.74613857 6.57404607 1.53173403 10 3 C10 3.33 10 3.66 10 4 C7 4 4 4 1 4 C0.01 6.64 -0.98 9.28 -2 12 C-2.99 11.67 -3.98 11.34 -5 11 C-3.35 7.37 -1.7 3.74 0 0 Z " fill="#0B2E25" transform="translate(403,261)"/>
<path d="M0 0 C2.93273701 0.48446393 5.86319626 0.97547496 8.7890625 1.5 C15.8453737 2.74408792 22.85230851 3.51841795 30 4 C30 4.33 30 4.66 30 5 C22.74 5 15.48 5 8 5 C8 4.34 8 3.68 8 3 C6.865625 2.87625 5.73125 2.7525 4.5625 2.625 C3.386875 2.41875 2.21125 2.2125 1 2 C0.67 1.34 0.34 0.68 0 0 Z " fill="#173F30" transform="translate(96,436)"/>
<path d="M0 0 C0.33 0 0.66 0 1 0 C0.62198705 6.80423303 -1.297101 12.24231311 -5 18 C-5.99 18.66 -6.98 19.32 -8 20 C-7.29048402 16.61186187 -6.02587325 13.69333713 -4.5625 10.5625 C-2.93749307 7.07479856 -1.3988231 3.58489084 0 0 Z " fill="#5DBC7E" transform="translate(325,487)"/>
<path d="M0 0 C0.95453218 2.75753742 0.97257956 4.13436018 0.375 7.0625 C0.25125 8.031875 0.1275 9.00125 0 10 C1.35405861 11.60411246 1.35405861 11.60411246 3 13 C3.6875 15.6875 3.6875 15.6875 4 18 C2.33333333 16.33333333 0.66666667 14.66666667 -1 13 C-1.61875 12.484375 -2.2375 11.96875 -2.875 11.4375 C-4 10 -4 10 -3.875 8.1875 C-2.74693354 5.36733385 -1.40651719 2.69072855 0 0 Z " fill="#0D3627" transform="translate(316,431)"/>
<path d="M0 0 C0.66 0.33 1.32 0.66 2 1 C-1 7 -4 13 -7 19 C-7.33 19 -7.66 19 -8 19 C-7.5469019 14.28777974 -6.94736854 11.65473699 -4 8 C-3.27648573 6.01985568 -2.59734611 4.02178685 -2 2 C-1.34 2 -0.68 2 0 2 C0 1.34 0 0.68 0 0 Z " fill="none" transform="translate(286,393)"/>
<path d="M0 0 C7.80340898 0.94586776 13.40373041 5.89701861 19 11 C18.01 11.33 17.02 11.66 16 12 C15.67 11.01 15.34 10.02 15 9 C13.35965807 8.27095914 11.68698082 7.61344757 10 7 C6.35778776 4.99678327 3.1985576 2.65023344 0 0 Z " fill="#5FB87E" transform="translate(452,169)"/>
<path d="M0 0 C0.66 0 1.32 0 2 0 C3.17118301 1.68449748 4.26242662 3.42495999 5.3125 5.1875 C7.8894287 9.37096583 10.31868148 12.76490191 14 16 C11 16 11 16 9.0625 14.20703125 C8.381875 13.41683594 7.70125 12.62664062 7 11.8125 C6.319375 11.03519531 5.63875 10.25789062 4.9375 9.45703125 C0 3.19556452 0 3.19556452 0 0 Z " fill="#61BE7E" transform="translate(231,147)"/>
<path d="M0 0 C0.66 0 1.32 0 2 0 C1.67 1.32 1.34 2.64 1 4 C0.34 4 -0.32 4 -1 4 C-1.0825 4.5775 -1.165 5.155 -1.25 5.75 C-2.20531013 8.6159304 -3.78469173 9.9990764 -6 12 C-6.66 11.67 -7.32 11.34 -8 11 C-7.04454634 9.53977837 -6.08553322 8.08188532 -5.125 6.625 C-4.59132812 5.81289063 -4.05765625 5.00078125 -3.5078125 4.1640625 C-2 2 -2 2 0 0 Z " fill="#57B175" transform="translate(239,440)"/>
<path d="M0 0 C4.39971916 3.01695028 8.16184566 6.91278367 10 12 C9.12890625 14.25 9.12890625 14.25 8 16 C7.67 14.02 7.34 12.04 7 10 C6.34 10 5.68 10 5 10 C3.7109375 8.3203125 3.7109375 8.3203125 2.375 6.125 C1.92898438 5.40570313 1.48296875 4.68640625 1.0234375 3.9453125 C0 2 0 2 0 0 Z " fill="#59AF77" transform="translate(471,181)"/>
<path d="M0 0 C3.99534208 0.57076315 6.588173 1.90041415 10 4 C12.19130534 4.69579454 12.19130534 4.69579454 14 5 C14 5.99 14 6.98 14 8 C8.76481294 6.56032356 4.36973991 4.18303389 0 1 C0 0.67 0 0.34 0 0 Z " fill="#5AB178" transform="translate(88,429)"/>
<path d="M0 0 C0.66 0.33 1.32 0.66 2 1 C0.3970551 2.29318256 -1.20740142 3.58449156 -2.8125 4.875 C-3.70582031 5.59429687 -4.59914062 6.31359375 -5.51953125 7.0546875 C-8 9 -8 9 -11 11 C-10.8125 8.125 -10.8125 8.125 -10 5 C-7.75 3.8125 -7.75 3.8125 -5 3 C-4.113125 2.443125 -3.22625 1.88625 -2.3125 1.3125 C-1.1678125 0.6628125 -1.1678125 0.6628125 0 0 Z " fill="#092923" transform="translate(249,430)"/>
<path d="M0 0 C0.66 0 1.32 0 2 0 C0.51637716 6.26418531 -3.24162156 10.91513505 -7 16 C-7.66 15.34 -8.32 14.68 -9 14 C-8.60167969 13.57589844 -8.20335937 13.15179688 -7.79296875 12.71484375 C-4.14137539 8.67232555 -1.87842746 5.11349698 0 0 Z " fill="#5BB97B" transform="translate(164,409)"/>
<path d="M0 0 C1.76141726 2.64212589 3.23818698 5.2427764 4.6875 8.0625 C5.14511719 8.94035156 5.60273438 9.81820313 6.07421875 10.72265625 C6.37972656 11.47417969 6.68523437 12.22570312 7 13 C6.67 13.66 6.34 14.32 6 15 C3.00701346 12.43458297 1.49360038 9.6273152 0 6 C-0.1875 2.625 -0.1875 2.625 0 0 Z " fill="#123C2E" transform="translate(226,488)"/>
<path d="M0 0 C0.99 0 1.98 0 3 0 C3.66 2.64 4.32 5.28 5 8 C5.66 8 6.32 8 7 8 C7 10.64 7 13.28 7 16 C6.72414063 15.44570313 6.44828125 14.89140625 6.1640625 14.3203125 C5.35458166 12.70678358 4.53620153 11.09770115 3.7109375 9.4921875 C3.27007812 8.62851562 2.82921875 7.76484375 2.375 6.875 C1.70597656 5.57175781 1.70597656 5.57175781 1.0234375 4.2421875 C0 2 0 2 0 0 Z " fill="#092824" transform="translate(320,448)"/>
<path d="M0 0 C0.66 0 1.32 0 2 0 C1.39301257 4.12751449 -0.03810791 7.3321148 -2 11 C-2.99 11 -3.98 11 -5 11 C-3.55049545 7.2089881 -1.84827434 3.6125362 0 0 Z " fill="#0E2D29" transform="translate(378,310)"/>
<path d="M0 0 C0.33 0 0.66 0 1 0 C1.37169941 4.3364931 0.31392722 6.39027353 -2 10 C-2.69579454 12.19130534 -2.69579454 12.19130534 -3 14 C-3.99 14 -4.98 14 -6 14 C-4.50829734 9.0276578 -2.39542583 4.58154261 0 0 Z " fill="#5AB478" transform="translate(173,303)"/>
<path d="M0 0 C0.66 0 1.32 0 2 0 C2 0.66 2 1.32 2 2 C3.32 2.33 4.64 2.66 6 3 C6 3.66 6 4.32 6 5 C6.804375 5.268125 7.60875 5.53625 8.4375 5.8125 C9.283125 6.204375 10.12875 6.59625 11 7 C11.33 7.99 11.66 8.98 12 10 C7.15853891 8.53289058 3.44051028 5.6487256 0 2 C0 1.34 0 0.68 0 0 Z " fill="#59AB75" transform="translate(84,253)"/>
<path d="M0 0 C0.66 0 1.32 0 2 0 C1.42365861 4.75481646 -0.55068521 7.97048212 -3 12 C-3.66 12 -4.32 12 -5 12 C-3.68938409 7.76570244 -2.05643741 3.92592596 0 0 Z " fill="none" transform="translate(210,324)"/>
<path d="M0 0 C0.33 0 0.66 0 1 0 C1.19696449 3.10364229 1.38093262 6.20792192 1.5625 9.3125 C1.61857422 10.19357422 1.67464844 11.07464844 1.73242188 11.98242188 C1.78076172 12.82998047 1.82910156 13.67753906 1.87890625 14.55078125 C1.9260376 15.33106689 1.97316895 16.11135254 2.02172852 16.9152832 C2 19 2 19 1 22 C0.34 22 -0.32 22 -1 22 C-0.67 14.74 -0.34 7.48 0 0 Z " fill="#245B41" transform="translate(170,209)"/>
<path d="M0 0 C0.27585938 0.56460937 0.55171875 1.12921875 0.8359375 1.7109375 C2.43898878 4.8632464 4.21459288 7.91093906 5.9765625 10.9765625 C7 13 7 13 7 15 C6.34 15 5.68 15 5 15 C4.15415002 13.44424022 3.32381601 11.8800388 2.5 10.3125 C2.0359375 9.44238281 1.571875 8.57226562 1.09375 7.67578125 C-0.04818792 4.88211171 -0.21504208 2.98370887 0 0 Z " fill="#5FBF7F" transform="translate(228,488)"/>
<path d="M0 0 C0.66 0.99 1.32 1.98 2 3 C0.35 5.97 -1.3 8.94 -3 12 C-3.66 12 -4.32 12 -5 12 C-3.68938409 7.76570244 -2.05643741 3.92592596 0 0 Z " fill="#0D3129" transform="translate(324,415)"/>
<path d="M0 0 C0.33 0 0.66 0 1 0 C1.6175196 5.09453672 -0.22939021 7.88366546 -3 12 C-3.99 12.33 -4.98 12.66 -6 13 C-4.31326082 8.50202887 -2.18326108 4.27113698 0 0 Z " fill="#113B2C" transform="translate(344,376)"/>
<path d="M0 0 C0.66 0.33 1.32 0.66 2 1 C-0.31 5.62 -2.62 10.24 -5 15 C-6 12 -6 12 -4.78515625 9.08203125 C-4.21667969 8.00308594 -3.64820313 6.92414063 -3.0625 5.8125 C-2.49660156 4.72582031 -1.93070312 3.63914062 -1.34765625 2.51953125 C-0.90292969 1.68808594 -0.45820313 0.85664063 0 0 Z " fill="#092B23" transform="translate(339,288)"/>
<path d="M0 0 C0.33 0 0.66 0 1 0 C1.125 7.75 1.125 7.75 0 10 C-0.66 10 -1.32 10 -2 10 C-2 10.66 -2 11.32 -2 12 C-2.66 12 -3.32 12 -4 12 C-2.66666667 8 -1.33333333 4 0 0 Z " fill="#11362C" transform="translate(484,230)"/>
<path d="M0 0 C2.93200474 2.85276137 5.64315404 5.65079784 8 9 C6.35 8.67 4.7 8.34 3 8 C3 7.34 3 6.68 3 6 C2.34 6 1.68 6 1 6 C0.67 4.02 0.34 2.04 0 0 Z " fill="#11372A" transform="translate(234,154)"/>
<path d="M0 0 C0.33 0.99 0.66 1.98 1 3 C-0.14453125 5.26171875 -0.14453125 5.26171875 -1.8125 7.6875 C-2.35519531 8.49574219 -2.89789063 9.30398437 -3.45703125 10.13671875 C-3.96621094 10.75160156 -4.47539062 11.36648437 -5 12 C-5.66 12 -6.32 12 -7 12 C-5.44298069 7.32894208 -2.91552627 3.91294315 0 0 Z " fill="#5BB478" transform="translate(238,91)"/>
<path d="M0 0 C-1.36370299 2.99220268 -2.94908083 5.29026529 -5.125 7.75 C-5.93324219 8.67039062 -5.93324219 8.67039062 -6.7578125 9.609375 C-7.16773438 10.06828125 -7.57765625 10.5271875 -8 11 C-8.33 10.01 -8.66 9.02 -9 8 C-7.63671875 5.95703125 -7.63671875 5.95703125 -5.6875 3.8125 C-5.05199219 3.09707031 -4.41648437 2.38164062 -3.76171875 1.64453125 C-2 0 -2 0 0 0 Z " fill="#0E3328" transform="translate(400,349)"/>
<path d="M0 0 C0.66 0.99 1.32 1.98 2 3 C0.35 5.97 -1.3 8.94 -3 12 C-3.66 11.67 -4.32 11.34 -5 11 C-3.55049545 7.2089881 -1.84827434 3.6125362 0 0 Z " fill="#58B176" transform="translate(358,255)"/>
<path d="M0 0 C1.98 0 3.96 0 6 0 C5.4225 0.350625 4.845 0.70125 4.25 1.0625 C1.21628345 3.67486703 -0.13315929 6.46633723 -2 10 C-2.66 10 -3.32 10 -4 10 C-2.8905928 6.51329166 -1.73662334 3.22515763 0 0 Z " fill="none" transform="translate(246,254)"/>
<path d="M0 0 C3.94876098 0.56410871 6.75634176 1.65735794 10 4 C10.33 4.99 10.66 5.98 11 7 C10.484375 6.731875 9.96875 6.46375 9.4375 6.1875 C6.33598585 4.67650593 3.17737194 3.34427274 0 2 C0 1.34 0 0.68 0 0 Z " fill="#13382C" transform="translate(453,167)"/>
<path d="M0 0 C3.66161578 1.22053859 4.16270474 2.36782304 6.1875 5.5625 C6.71730469 6.38878906 7.24710938 7.21507812 7.79296875 8.06640625 C8.19128906 8.70449219 8.58960938 9.34257812 9 10 C8.01 10 7.02 10 6 10 C5.87625 9.071875 5.87625 9.071875 5.75 8.125 C5.21189267 5.81653196 5.21189267 5.81653196 3 5 C1 4 1 4 0.25 1.875 C0.1675 1.25625 0.085 0.6375 0 0 Z " fill="#0D3127" transform="translate(231,502)"/>
<path d="M0 0 C0.66 0.33 1.32 0.66 2 1 C1.04454634 2.46022163 0.08553322 3.91811468 -0.875 5.375 C-1.40867187 6.18710937 -1.94234375 6.99921875 -2.4921875 7.8359375 C-4 10 -4 10 -6 12 C-5.125 6.25 -5.125 6.25 -4 4 C-3.34 4 -2.68 4 -2 4 C-1.34 2.68 -0.68 1.36 0 0 Z " fill="#0D3328" transform="translate(79,354)"/>
<path d="M0 0 C0.75 1.5625 0.75 1.5625 1 4 C0.00926789 6.59288748 -1.26221164 8.83488663 -3 11 C-5.25 11.9375 -5.25 11.9375 -7 12 C-7 11.34 -7 10.68 -7 10 C-6.01 10 -5.02 10 -4 10 C-3.896875 9.46375 -3.79375 8.9275 -3.6875 8.375 C-2.81907303 5.37497956 -1.44379704 2.7620465 0 0 Z " fill="#53AD73" transform="translate(156,336)"/>
<path d="M0 0 C3.63 0 7.26 0 11 0 C10.67 1.32 10.34 2.64 10 4 C5.38308839 3.47535095 3.90012114 2.92509086 0 0 Z " fill="#0E392B" transform="translate(142,342)"/>
<path d="M0 0 C1.60517097 0.08733576 3.20921662 0.19552224 4.8125 0.3125 C6.15248047 0.39951172 6.15248047 0.39951172 7.51953125 0.48828125 C10.30604 1.06313581 11.24135754 1.8206856 13 4 C8.28596212 3.52060632 4.33420699 3.03165952 0 1 C0 0.67 0 0.34 0 0 Z " fill="#58AF76" transform="translate(255,522)"/>
<path d="M0 0 C0.66 0.33 1.32 0.66 2 1 C-1.222107 4.8665284 -4.14922412 5.88059018 -9 7 C-6.25604436 4.05278838 -3.61662784 1.80831392 0 0 Z " fill="#0D2E26" transform="translate(147,260)"/>
<path d="M0 0 C1.46726798 3.81489674 0.43336419 6.29011622 -1 10 C-1.66 10 -2.32 10 -3 10 C-2.25 3.375 -2.25 3.375 0 0 Z " fill="#51A571" transform="translate(230,103)"/>
<path d="M0 0 C0.66 0.66 1.32 1.32 2 2 C1.69903201 6.13830989 1.32101984 8.51847024 -1 12 C-2.09898702 8.70303895 -1.87124444 7.59505097 -1.0625 4.3125 C-0.86785156 3.50425781 -0.67320312 2.69601562 -0.47265625 1.86328125 C-0.31667969 1.24839844 -0.16070312 0.63351562 0 0 Z " fill="#0E342A" transform="translate(170,395)"/>
<path d="M0 0 C3.99500618 1.3697164 6.80009492 3.25722422 10 6 C9.67 6.66 9.34 7.32 9 8 C7.49460339 7.05016642 5.99579653 6.08988109 4.5 5.125 C3.6646875 4.59132813 2.829375 4.05765625 1.96875 3.5078125 C1.3190625 3.01023437 0.669375 2.51265625 0 2 C0 1.34 0 0.68 0 0 Z " fill="#5DB97C" transform="translate(457,343)"/>
<path d="M0 0 C1.01527342 4.06109369 1.05430484 4.66966838 -0.4375 8.25 C-0.72496094 8.95640625 -1.01242188 9.6628125 -1.30859375 10.390625 C-1.53675781 10.92171875 -1.76492187 11.4528125 -2 12 C-2.99 11.34 -3.98 10.68 -5 10 C-3.35 6.7 -1.7 3.4 0 0 Z " fill="#58AF76" transform="translate(195,260)"/>
<path d="M0 0 C4.3177458 0.50797009 8.03302114 1.19682779 12 3 C12 3.33 12 3.66 12 4 C10.56138706 3.91253716 9.12402492 3.80434652 7.6875 3.6875 C6.88699219 3.62949219 6.08648437 3.57148438 5.26171875 3.51171875 C2.63727666 2.91793306 1.69179328 2.04219706 0 0 Z " fill="#5BB67B" transform="translate(412,263)"/>
<path d="M0 0 C0.75 1.5625 0.75 1.5625 1 4 C-0.13084437 6.50286409 -1.52139516 8.67007722 -3 11 C-3.66 11 -4.32 11 -5 11 C-3.55049545 7.2089881 -1.84827434 3.6125362 0 0 Z " fill="#57AC75" transform="translate(228,196)"/>
<path d="M0 0 C1.79068573 2.6860286 2.66055791 4.6626589 3.625 7.6875 C3.88539063 8.49574219 4.14578125 9.30398437 4.4140625 10.13671875 C4.60742188 10.75160156 4.80078125 11.36648437 5 12 C4.01 12.495 4.01 12.495 3 13 C0.78145293 8.37802694 -0.38281159 5.23175837 0 0 Z " fill="#123D2E" transform="translate(227,139)"/>
<path d="M0 0 C0.66 0.33 1.32 0.66 2 1 C0.35 4.3 -1.3 7.6 -3 11 C-3.33 11 -3.66 11 -4 11 C-3.56179109 6.44262737 -3.14958831 3.42346555 0 0 Z " fill="#59B377" transform="translate(358,346)"/>
<path d="M0 0 C0.33 0 0.66 0 1 0 C1 2.64 1 5.28 1 8 C-0.32 8 -1.64 8 -3 8 C-2.37240135 5.07120629 -1.41377341 2.63904371 0 0 Z " fill="none" transform="translate(204,336)"/>
<path d="M0 0 C0.99 0.33 1.98 0.66 3 1 C1.38405168 3.04119788 -0.2856382 5.04072937 -2 7 C-2.66 7 -3.32 7 -4 7 C-2.92598892 4.08482708 -2.22189824 2.22189824 0 0 Z " fill="#58BC7A" transform="translate(243,169)"/>
<path d="M0 0 C0.8971875 0.5259375 0.8971875 0.5259375 1.8125 1.0625 C-2.01070557 2.48508812 -5.10031305 3.30292276 -9.1875 3.0625 C-3.45766129 -1.48185484 -3.45766129 -1.48185484 0 0 Z " fill="#0D3026" transform="translate(263.1875,424.9375)"/>
<path d="M0 0 C0.66 0.99 1.32 1.98 2 3 C1.71125 3.556875 1.4225 4.11375 1.125 4.6875 C-0.0413253 7.08494645 -1.0339881 9.51596939 -2 12 C-3.12377697 8.69564916 -2.89554742 6.9493138 -1.5625 3.75 C-1.27503906 3.04359375 -0.98757813 2.3371875 -0.69140625 1.609375 C-0.46324219 1.07828125 -0.23507812 0.5471875 0 0 Z " fill="#429364" transform="translate(386,368)"/>
<path d="M0 0 C0.33 0.66 0.66 1.32 1 2 C0.22265625 3.9453125 0.22265625 3.9453125 -0.9375 6.125 C-1.31777344 6.84945313 -1.69804687 7.57390625 -2.08984375 8.3203125 C-2.39019531 8.87460937 -2.69054687 9.42890625 -3 10 C-3.66 9.67 -4.32 9.34 -5 9 C-3.7508258 5.54074837 -2.32472205 2.85306797 0 0 Z " fill="#5DB87C" transform="translate(327,317)"/>
<path d="M0 0 C0.66 0.33 1.32 0.66 2 1 C0.66666667 3.66666667 -0.66666667 6.33333333 -2 9 C-2.66 9 -3.32 9 -4 9 C-2.94124926 5.59687262 -1.99097846 2.98646769 0 0 Z " fill="#56AB76" transform="translate(339,292)"/>
<path d="M0 0 C0.66 0 1.32 0 2 0 C0.44499019 3.81684226 -2.03595495 6.19195732 -5 9 C-4.42676569 5.13066838 -2.61046448 2.84777943 0 0 Z " fill="#0A2D22" transform="translate(82,178)"/>
<path d="M0 0 C1.98 0 3.96 0 6 0 C4.71937515 1.7074998 3.38232443 3.37373596 2 5 C1.34 5 0.68 5 0 5 C0 3.35 0 1.7 0 0 Z " fill="#0E2325" transform="translate(286,176)"/>
<path d="M0 0 C0.66 0.33 1.32 0.66 2 1 C-0.35380297 4.92300495 -2.64464931 5.83857315 -7 7 C-4.66666667 4.66666667 -2.33333333 2.33333333 0 0 Z " fill="#57AC75" transform="translate(91,345)"/>
<path d="M0 0 C0.6875 1.6875 0.6875 1.6875 1 4 C-0.3125 6.75 -0.3125 6.75 -2 9 C-2.66 9 -3.32 9 -4 9 C-2.80100302 5.9168649 -1.52299523 2.93720508 0 0 Z " fill="#58B579" transform="translate(165,319)"/>
<path d="M0 0 C0.66 0 1.32 0 2 0 C2.25 2.3125 2.25 2.3125 2 5 C0 6.8125 0 6.8125 -2 8 C-2.20086443 4.28400809 -2.1519437 3.22791555 0 0 Z " fill="none" transform="translate(225,295)"/>
<path d="M0 0 C0.66 0 1.32 0 2 0 C1.25 7.75 1.25 7.75 -1 10 C-0.67 6.7 -0.34 3.4 0 0 Z " fill="#5FBE7D" transform="translate(385,200)"/>
<path d="M0 0 C0.33 1.32 0.66 2.64 1 4 C-1.4375 6.75 -1.4375 6.75 -4 9 C-4.66 8.67 -5.32 8.34 -6 8 C-4.02 5.36 -2.04 2.72 0 0 Z " fill="#103629" transform="translate(320,152)"/>
<path d="M0 0 C3.3 0.33 6.6 0.66 10 1 C10.33 1.99 10.66 2.98 11 4 C7.1936543 3.32829194 3.64793184 2.27253436 0 1 C0 0.67 0 0.34 0 0 Z " fill="#0D3328" transform="translate(288,75)"/>
<path d="M0 0 C2.97 0.495 2.97 0.495 6 1 C6 1.66 6 2.32 6 3 C7.32 3.66 8.64 4.32 10 5 C5.75354935 5 3.61475228 3.18249194 0 1 C0 0.67 0 0.34 0 0 Z " fill="#56A572" transform="translate(245,516)"/>
<path d="M0 0 C0.66 0.33 1.32 0.66 2 1 C0.35 3.64 -1.3 6.28 -3 9 C-4 5 -4 5 -3.1875 2.8125 C-2 1 -2 1 0 0 Z " fill="none" transform="translate(235,442)"/>
<path d="M0 0 C0.33 0.66 0.66 1.32 1 2 C0.67 2.99 0.34 3.98 0 5 C-3.5625 6.1875 -3.5625 6.1875 -7 7 C-4.66666667 4.66666667 -2.33333333 2.33333333 0 0 Z " fill="#0F3B2C" transform="translate(469,426)"/>
<path d="M0 0 C0.33 0 0.66 0 1 0 C1.39253254 4.44870215 0.15305957 7.14243493 -2 11 C-2.95465783 8.83032311 -3.14401212 7.43671207 -2.3984375 5.17578125 C-1.64129615 3.4315257 -0.82390802 1.71372869 0 0 Z " fill="none" transform="translate(202,335)"/>
<path d="M0 0 C0.66 0.66 1.32 1.32 2 2 C0.35 4.64 -1.3 7.28 -3 10 C-3.33 9.34 -3.66 8.68 -4 8 C-3.22265625 6.0546875 -3.22265625 6.0546875 -2.0625 3.875 C-1.49208984 2.78832031 -1.49208984 2.78832031 -0.91015625 1.6796875 C-0.60980469 1.12539063 -0.30945313 0.57109375 0 0 Z " fill="#60BC7C" transform="translate(401,261)"/>
<path d="M0 0 C0 2 0 2 -2 4.125 C-2.66 4.74375 -3.32 5.3625 -4 6 C-5.32 5.34 -6.64 4.68 -8 4 C-2.25 0 -2.25 0 0 0 Z " fill="#0D2D28" transform="translate(311,165)"/>
<path d="M0 0 C0.66 0 1.32 0 2 0 C1.34 3.3 0.68 6.6 0 10 C-0.33 10 -0.66 10 -1 10 C-1.125 2.25 -1.125 2.25 0 0 Z " fill="#56B378" transform="translate(325,135)"/>
<path d="M0 0 C-0.33 0.99 -0.66 1.98 -1 3 C-3.31 3.33 -5.62 3.66 -8 4 C-5.57415142 1.34311822 -3.76063134 0 0 0 Z " fill="#123A2F" transform="translate(462,433)"/>
<path d="M0 0 C0.66 0 1.32 0 2 0 C1.1875 2.9375 1.1875 2.9375 0 6 C-0.99 6.33 -1.98 6.66 -3 7 C-1.125 1.125 -1.125 1.125 0 0 Z " fill="#53A975" transform="translate(185,280)"/>
<path d="M0 0 C0.66 0 1.32 0 2 0 C1.40072174 3.35595828 0.15377564 5.37801226 -2 8 C-2.33 6.68 -2.66 5.36 -3 4 C-2.34 4 -1.68 4 -1 4 C-0.67 2.68 -0.34 1.36 0 0 Z " fill="#0F3629" transform="translate(187,272)"/>
<path d="M0 0 C0.33 0 0.66 0 1 0 C1.41176754 3.60296594 1.1535853 4.78402067 -1 7.8125 C-1.66 8.534375 -2.32 9.25625 -3 10 C-2.49287967 6.28111761 -1.88391785 3.26545761 0 0 Z " fill="none" transform="translate(202,242)"/>
</svg>
